<svg xmlns="http://www.w3.org/2000/svg" viewBox="0 0 17 17" width="17" height="17">
	<defs>
		<clipPath clipPathUnits="userSpaceOnUse" id="cp1">
			<path d="M-1274 -6745L166 -6745L166 111L-1274 111Z" />
		</clipPath>
	</defs>
	<style>
		tspan { white-space:pre }
		.shp0 { fill: #ffffff } 
	</style>
	<g id="Home--Main" clip-path="url(#cp1)">
		<g id="Legal Stuff Copy">
			<g id="icon/social/facebook_24px copy 2">
				<path id="icon/social/instagram_24px" fill-rule="evenodd" class="shp0" d="M13.13 8.64C13.13 10.9 11.29 12.77 9 12.77C6.71 12.77 4.87 10.93 4.87 8.64C4.87 6.35 6.74 4.51 9 4.51C11.26 4.51 13.13 6.38 13.13 8.64ZM11.65 8.64C11.65 7.19 10.45 5.99 9 5.99C7.55 5.99 6.35 7.19 6.35 8.64C6.35 10.09 7.55 11.29 9 11.29C10.45 11.29 11.65 10.09 11.65 8.64ZM12.35 4.41C12.35 3.9 12.77 3.48 13.29 3.48C13.81 3.48 14.23 3.9 14.23 4.41C14.23 4.93 13.81 5.35 13.29 5.35C12.77 5.35 12.35 4.93 12.35 4.41ZM17 5.35L17 11.99C17 13.38 16.55 14.58 15.68 15.41C14.84 16.22 13.68 16.67 12.29 16.67L5.71 16.67C4.39 16.67 3.23 16.25 2.35 15.41C1.45 14.54 1 13.35 1 11.96L1 5.35C1 2.54 2.87 0.67 5.68 0.67L12.32 0.67C13.68 0.67 14.87 1.12 15.71 1.99C16.55 2.83 17 3.99 17 5.35ZM15.58 11.99L15.58 5.35C15.58 4.41 15.26 3.61 14.71 3.03C14.13 2.45 13.32 2.16 12.35 2.16L5.71 2.16C4.74 2.16 3.9 2.45 3.35 2.99C2.77 3.58 2.48 4.38 2.48 5.35L2.48 11.96C2.48 12.96 2.77 13.77 3.35 14.35C3.94 14.9 4.74 15.19 5.71 15.19L12.29 15.19C13.26 15.19 14.06 14.9 14.65 14.35C15.23 13.8 15.58 12.99 15.58 11.99Z" />
			</g>
		</g>
	</g>
</svg>