<svg xmlns="http://www.w3.org/2000/svg" viewBox="0 0 16 14" width="16" height="14">
	<defs>
		<clipPath clipPathUnits="userSpaceOnUse" id="cp1">
			<path d="M-1231 -6746L209 -6746L209 110L-1231 110Z" />
		</clipPath>
	</defs>
	<style>
		tspan { white-space:pre }
		.shp0 { fill: #ffffff } 
	</style>
	<g id="Home--Main" clip-path="url(#cp1)">
		<g id="Legal Stuff Copy">
			<g id="icon/social/facebook_24px copy">
				<path id="icon/social/twitter_24px" fill-rule="evenodd" class="shp0" d="M9.28 1.86C11.2 1.45 12.32 2.47 12.32 2.47L13.83 1.86C13.72 2.5 12.79 3.18 12.79 3.18L14.15 2.93L12.79 4.15C12.83 4.73 12.88 5.89 12.36 7.13C10.25 12.14 5.8 11.93 5.8 11.93C3.4 11.96 1.83 10.74 1.83 10.74C4.62 10.82 5.48 9.67 5.48 9.67C3.4 9.35 3.08 7.88 3.08 7.88L4.26 7.88C2.04 7.16 2.26 5.34 2.26 5.34C2.76 5.69 3.37 5.59 3.37 5.59C1.5 4.3 2.58 2.18 2.58 2.18C5.34 5.41 7.81 4.83 7.81 4.83C7.52 2.22 9.28 1.86 9.28 1.86ZM6.48 3.23C6.37 3.2 6.26 3.17 6.14 3.13C5.2 2.79 4.22 2.1 3.22 0.93C2.58 0.19 1.4 0.33 0.96 1.2C0.89 1.35 0.8 1.56 0.71 1.84C0.44 2.7 0.38 3.6 0.66 4.5C0.56 4.66 0.5 4.85 0.47 5.05C0.47 5.09 0.47 5.09 0.46 5.16C0.42 5.87 0.58 6.69 1.11 7.49C1.19 7.6 1.27 7.71 1.36 7.82C1.34 7.96 1.35 8.1 1.38 8.24C1.47 8.65 1.7 9.16 2.12 9.65C1.9 9.67 1.66 9.67 1.41 9.67C0.08 9.63 -0.51 11.31 0.53 12.11C0.82 12.34 1.3 12.63 1.96 12.92C3.06 13.4 4.3 13.69 5.64 13.67C6.08 13.68 6.67 13.63 7.38 13.47C8.46 13.23 9.54 12.78 10.55 12.06C11.98 11.05 13.15 9.6 13.96 7.67C14.42 6.59 14.57 5.61 14.55 4.53L15.54 3.65C16.18 3.08 16.1 2.21 15.63 1.7C15.8 0.64 14.76 -0.19 13.77 0.21L12.81 0.6C12.76 0.57 12.71 0.54 12.65 0.52C11.67 0.04 10.51 -0.14 9.21 0.11C8.02 0.22 6.77 1.35 6.48 3.23ZM2.83 4.13C2.83 4.13 2.83 4.13 2.82 4.13L2.83 4.13Z" />
			</g>
		</g>
	</g>
</svg>